<svg width="117" height="117" viewBox="0 0 117 117" fill="none" xmlns="http://www.w3.org/2000/svg">
<circle cx="58.5" cy="58.5" r="57.5" fill="#4D0103" stroke="#F4E796" stroke-width="2"/>
<path d="M76.4097 38.4219H40.873C41.4152 41.4594 42.2968 42.9245 46.1896 44.5778H72.4923C74.9856 42.7508 75.7556 41.348 76.4097 38.4219Z" fill="#4D0103" stroke="url(#paint0_linear_112_163)" stroke-width="3"/>
<path d="M42.1113 50.1741C45.1072 48.7873 46.2768 47.7737 46.2349 45.1375H70.4268C70.6347 47.8199 71.2317 48.9226 73.4508 50.1741H42.1113Z" fill="#4D0103" stroke="url(#paint1_linear_112_163)" stroke-width="3"/>
<path d="M75.8116 50.1741H42.1183C34.3163 59.8151 34.8364 64.8667 46.33 73.119H72.1615C83.7511 65.1244 84.4246 60.0993 75.8116 50.1741Z" fill="#4D0103" stroke="url(#paint2_linear_112_163)" stroke-width="3"/>
<path d="M46.4894 80.1146C44.9518 77.3844 44.9877 75.8458 46.4894 73.1191H72.5124C73.7383 75.8502 73.8519 77.3835 72.5124 80.1146H46.4894Z" fill="#4D0103" stroke="url(#paint3_linear_112_163)" stroke-width="3"/>
<path d="M74.73 37.57H65.4961C71.7352 27.2526 76.6602 24.8566 89.0007 26.6572C82.6059 29.6876 79.4273 32.0241 74.73 37.57Z" fill="#4D0103" stroke="url(#paint4_linear_112_163)" stroke-width="3"/>
<path d="M42.27 37.57H51.5039C45.2648 27.2526 40.3398 24.8566 27.9993 26.6572C34.3941 29.6876 37.5727 32.0241 42.27 37.57Z" fill="#4D0103" stroke="url(#paint5_linear_112_163)" stroke-width="3"/>
<path d="M47.8661 24.711L46.1872 29.7477C41.4477 27.0976 39.2629 24.8245 35.834 19.9541C41.5193 20.2421 44.1974 21.188 47.8661 24.711Z" fill="#4D0103" stroke="url(#paint6_linear_112_163)" stroke-width="3"/>
<path d="M69.4132 24.1514L71.0921 29.1881C75.8316 26.538 78.0164 24.2649 81.4453 19.3945C75.76 19.6825 73.0819 20.6284 69.4132 24.1514Z" fill="#4D0103" stroke="url(#paint7_linear_112_163)" stroke-width="3"/>
<path d="M52.3449 37.3836C50.0613 34.9544 48.78 33.1099 46.4688 29.2689C48.0698 18.4314 57.9007 10.084 58.5009 11.0808C59.8999 11 70.5366 19.4131 70.8128 29.2689C69.0996 32.3198 67.7238 34.0535 64.377 37.3836H52.3449Z" fill="#4D0103" stroke="url(#paint8_linear_112_163)" stroke-width="3"/>
<path d="M29.3232 94.103C29.2829 93.9538 29.2237 93.8224 29.1456 93.7088C29.0675 93.5928 28.9716 93.4946 28.858 93.4141C28.7443 93.3336 28.6141 93.2732 28.4673 93.233C28.3205 93.1903 28.1596 93.169 27.9844 93.169C27.6316 93.169 27.3262 93.2543 27.0682 93.4247C26.8125 93.5952 26.6148 93.8437 26.4751 94.1705C26.3355 94.4948 26.2656 94.889 26.2656 95.353C26.2656 95.8194 26.3331 96.2171 26.468 96.5462C26.603 96.8752 26.7983 97.1262 27.054 97.299C27.3097 97.4718 27.6198 97.5582 27.9844 97.5582C28.3063 97.5582 28.5786 97.5062 28.8011 97.402C29.026 97.2955 29.1965 97.1451 29.3125 96.951C29.4285 96.7569 29.4865 96.5284 29.4865 96.2656L29.8132 96.3047H28.0447V95.0227H31.1804V95.9851C31.1804 96.6361 31.0419 97.1937 30.7649 97.6577C30.4903 98.1217 30.1115 98.478 29.6286 98.7266C29.148 98.9751 28.5952 99.0994 27.9702 99.0994C27.2765 99.0994 26.6669 98.9491 26.1413 98.6484C25.6158 98.3478 25.2062 97.9193 24.9126 97.3629C24.6191 96.8042 24.4723 96.1413 24.4723 95.3743C24.4723 94.7777 24.5611 94.2486 24.7386 93.7869C24.9162 93.3229 25.1636 92.9299 25.4808 92.608C25.8004 92.286 26.1697 92.0421 26.5888 91.8764C27.0102 91.7107 27.4635 91.6278 27.9489 91.6278C28.3703 91.6278 28.7621 91.6882 29.1243 91.8089C29.4889 91.9297 29.8108 92.1001 30.0902 92.3203C30.3719 92.5405 30.6004 92.8021 30.7756 93.1051C30.9508 93.4081 31.0597 93.7408 31.1023 94.103H29.3232ZM33.9529 91.7273V99H32.2164V91.7273H33.9529ZM37.6044 99.103C37.0315 99.103 36.5391 98.9858 36.1271 98.7514C35.7176 98.5147 35.4015 98.1856 35.179 97.7642C34.9588 97.3404 34.8487 96.8492 34.8487 96.2905C34.8487 95.7294 34.9588 95.2382 35.179 94.8168C35.4015 94.393 35.7176 94.0639 36.1271 93.8295C36.5391 93.5928 37.0315 93.4744 37.6044 93.4744C38.1773 93.4744 38.6686 93.5928 39.0781 93.8295C39.4901 94.0639 39.8061 94.393 40.0263 94.8168C40.2488 95.2382 40.3601 95.7294 40.3601 96.2905C40.3601 96.8492 40.2488 97.3404 40.0263 97.7642C39.8061 98.1856 39.4901 98.5147 39.0781 98.7514C38.6686 98.9858 38.1773 99.103 37.6044 99.103ZM37.6151 97.7926C37.8234 97.7926 37.9998 97.7287 38.1442 97.6009C38.2886 97.473 38.3987 97.2955 38.4744 97.0682C38.5526 96.8409 38.5916 96.5781 38.5916 96.2798C38.5916 95.9768 38.5526 95.7116 38.4744 95.4844C38.3987 95.2571 38.2886 95.0795 38.1442 94.9517C37.9998 94.8239 37.8234 94.7599 37.6151 94.7599C37.3996 94.7599 37.2173 94.8239 37.0682 94.9517C36.9214 95.0795 36.8089 95.2571 36.7308 95.4844C36.6551 95.7116 36.6172 95.9768 36.6172 96.2798C36.6172 96.5781 36.6551 96.8409 36.7308 97.0682C36.8089 97.2955 36.9214 97.473 37.0682 97.6009C37.2173 97.7287 37.3996 97.7926 37.6151 97.7926ZM41.2496 99V91.7273H42.9862V94.4794H43.0217C43.0927 94.3137 43.1933 94.1539 43.3235 94C43.4561 93.8461 43.6242 93.7206 43.8278 93.6236C44.0337 93.5241 44.2799 93.4744 44.5664 93.4744C44.9452 93.4744 45.2991 93.5739 45.6282 93.7727C45.9596 93.9716 46.2272 94.2782 46.4308 94.6925C46.6344 95.1068 46.7362 95.6347 46.7362 96.2763C46.7362 96.8942 46.6379 97.4115 46.4414 97.8281C46.2473 98.2448 45.9845 98.5573 45.6531 98.7656C45.324 98.974 44.9582 99.0781 44.5558 99.0781C44.2811 99.0781 44.0432 99.0331 43.842 98.9432C43.6407 98.8532 43.4715 98.7348 43.3342 98.5881C43.1992 98.4413 43.0951 98.2839 43.0217 98.1158H42.9684V99H41.2496ZM42.9506 96.2727C42.9506 96.5663 42.9897 96.822 43.0678 97.0398C43.1483 97.2576 43.2631 97.4268 43.4123 97.5476C43.5638 97.666 43.7449 97.7251 43.9556 97.7251C44.1687 97.7251 44.3498 97.666 44.4989 97.5476C44.6481 97.4268 44.7605 97.2576 44.8363 97.0398C44.9144 96.822 44.9535 96.5663 44.9535 96.2727C44.9535 95.9792 44.9144 95.7247 44.8363 95.5092C44.7605 95.2938 44.6481 95.1269 44.4989 95.0085C44.3522 94.8902 44.171 94.831 43.9556 94.831C43.7425 94.831 43.5614 94.889 43.4123 95.005C43.2631 95.121 43.1483 95.2867 43.0678 95.5021C42.9897 95.7176 42.9506 95.9744 42.9506 96.2727ZM49.1838 99.0923C48.8358 99.0923 48.5268 99.0343 48.2569 98.9183C47.9894 98.8 47.7775 98.6224 47.6213 98.3857C47.4674 98.1465 47.3904 97.8471 47.3904 97.4872C47.3904 97.1842 47.4437 96.9285 47.5502 96.7202C47.6568 96.5118 47.8036 96.3426 47.9906 96.2124C48.1776 96.0821 48.3931 95.9839 48.6369 95.9176C48.8807 95.849 49.1412 95.8028 49.4181 95.7791C49.7283 95.7507 49.978 95.7211 50.1674 95.6903C50.3568 95.6572 50.4941 95.611 50.5794 95.5518C50.667 95.4903 50.7108 95.4039 50.7108 95.2926V95.2749C50.7108 95.0926 50.648 94.9517 50.5225 94.8523C50.3971 94.7528 50.2278 94.7031 50.0147 94.7031C49.7851 94.7031 49.6004 94.7528 49.4608 94.8523C49.3211 94.9517 49.2323 95.089 49.1944 95.2642L47.5929 95.2074C47.6402 94.8759 47.7621 94.58 47.9586 94.3196C48.1575 94.0568 48.4297 93.8509 48.7754 93.7017C49.1234 93.5502 49.5413 93.4744 50.0289 93.4744C50.377 93.4744 50.6977 93.5159 50.9913 93.5987C51.2849 93.6792 51.5405 93.7976 51.7583 93.9538C51.9761 94.1077 52.1442 94.2971 52.2626 94.522C52.3833 94.7469 52.4437 95.0038 52.4437 95.2926V99H50.8102V98.2401H50.7676C50.6705 98.4247 50.5462 98.581 50.3947 98.7088C50.2456 98.8366 50.0692 98.9325 49.8656 98.9964C49.6644 99.0604 49.4371 99.0923 49.1838 99.0923ZM49.72 97.956C49.907 97.956 50.0751 97.9181 50.2243 97.8423C50.3758 97.7666 50.4965 97.6624 50.5865 97.5298C50.6764 97.3949 50.7214 97.2386 50.7214 97.0611V96.5426C50.6717 96.5687 50.6113 96.5923 50.5403 96.6136C50.4717 96.6349 50.3959 96.6551 50.313 96.674C50.2302 96.6929 50.1449 96.7095 50.0574 96.7237C49.9698 96.7379 49.8857 96.7509 49.8052 96.7628C49.6419 96.7888 49.5022 96.8291 49.3862 96.8835C49.2725 96.938 49.185 97.009 49.1234 97.0966C49.0642 97.1818 49.0346 97.2836 49.0346 97.402C49.0346 97.5819 49.0985 97.7192 49.2264 97.8139C49.3566 97.9086 49.5211 97.956 49.72 97.956ZM55.242 91.7273V99H53.5055V91.7273H55.242ZM64.6854 91.7273V99H63.1939L60.2997 94.8026H60.2536V99H58.4957V91.7273H60.0085L62.8707 95.9176H62.9311V91.7273H64.6854ZM67.3283 99.0923C66.9803 99.0923 66.6713 99.0343 66.4015 98.9183C66.1339 98.8 65.9221 98.6224 65.7658 98.3857C65.6119 98.1465 65.535 97.8471 65.535 97.4872C65.535 97.1842 65.5882 96.9285 65.6948 96.7202C65.8013 96.5118 65.9481 96.3426 66.1351 96.2124C66.3221 96.0821 66.5376 95.9839 66.7814 95.9176C67.0253 95.849 67.2857 95.8028 67.5627 95.7791C67.8728 95.7507 68.1226 95.7211 68.312 95.6903C68.5014 95.6572 68.6387 95.611 68.7239 95.5518C68.8115 95.4903 68.8553 95.4039 68.8553 95.2926V95.2749C68.8553 95.0926 68.7926 94.9517 68.6671 94.8523C68.5416 94.7528 68.3723 94.7031 68.1593 94.7031C67.9296 94.7031 67.745 94.7528 67.6053 94.8523C67.4656 94.9517 67.3768 95.089 67.339 95.2642L65.7374 95.2074C65.7847 94.8759 65.9067 94.58 66.1032 94.3196C66.302 94.0568 66.5743 93.8509 66.9199 93.7017C67.2679 93.5502 67.6858 93.4744 68.1735 93.4744C68.5215 93.4744 68.8423 93.5159 69.1358 93.5987C69.4294 93.6792 69.6851 93.7976 69.9029 93.9538C70.1207 94.1077 70.2888 94.2971 70.4071 94.522C70.5279 94.7469 70.5882 95.0038 70.5882 95.2926V99H68.9547V98.2401H68.9121C68.815 98.4247 68.6908 98.581 68.5392 98.7088C68.3901 98.8366 68.2137 98.9325 68.0101 98.9964C67.8089 99.0604 67.5816 99.0923 67.3283 99.0923ZM67.8645 97.956C68.0516 97.956 68.2196 97.9181 68.3688 97.8423C68.5203 97.7666 68.641 97.6624 68.731 97.5298C68.821 97.3949 68.8659 97.2386 68.8659 97.0611V96.5426C68.8162 96.5687 68.7559 96.5923 68.6848 96.6136C68.6162 96.6349 68.5404 96.6551 68.4576 96.674C68.3747 96.6929 68.2895 96.7095 68.2019 96.7237C68.1143 96.7379 68.0302 96.7509 67.9498 96.7628C67.7864 96.7888 67.6467 96.8291 67.5307 96.8835C67.4171 96.938 67.3295 97.009 67.2679 97.0966C67.2087 97.1818 67.1792 97.2836 67.1792 97.402C67.1792 97.5819 67.2431 97.7192 67.3709 97.8139C67.5011 97.9086 67.6657 97.956 67.8645 97.956ZM73.6422 99.0781C73.2398 99.0781 72.874 98.974 72.5449 98.7656C72.2158 98.5573 71.9531 98.2448 71.7566 97.8281C71.5601 97.4115 71.4618 96.8942 71.4618 96.2763C71.4618 95.6347 71.5636 95.1068 71.7672 94.6925C71.9708 94.2782 72.2372 93.9716 72.5662 93.7727C72.8977 93.5739 73.254 93.4744 73.6351 93.4744C73.9216 93.4744 74.1666 93.5241 74.3702 93.6236C74.5738 93.7206 74.7419 93.8461 74.8745 94C75.007 94.1539 75.1077 94.3137 75.1763 94.4794H75.2118V91.7273H76.9483V99H75.2296V98.1158H75.1763C75.1029 98.2839 74.9988 98.4413 74.8638 98.5881C74.7289 98.7348 74.5596 98.8532 74.356 98.9432C74.1548 99.0331 73.9168 99.0781 73.6422 99.0781ZM74.2459 97.7251C74.4566 97.7251 74.6365 97.666 74.7857 97.5476C74.9348 97.4268 75.0497 97.2576 75.1301 97.0398C75.2106 96.822 75.2509 96.5663 75.2509 96.2727C75.2509 95.9744 75.2106 95.7176 75.1301 95.5021C75.052 95.2867 74.9372 95.121 74.7857 95.005C74.6365 94.889 74.4566 94.831 74.2459 94.831C74.0305 94.831 73.8482 94.8902 73.699 95.0085C73.5499 95.1269 73.4363 95.2938 73.3581 95.5092C73.2824 95.7247 73.2445 95.9792 73.2445 96.2727C73.2445 96.5663 73.2836 96.822 73.3617 97.0398C73.4398 97.2576 73.5523 97.4268 73.699 97.5476C73.8482 97.666 74.0305 97.7251 74.2459 97.7251ZM79.5842 99.0923C79.2362 99.0923 78.9272 99.0343 78.6573 98.9183C78.3898 98.8 78.1779 98.6224 78.0217 98.3857C77.8678 98.1465 77.7908 97.8471 77.7908 97.4872C77.7908 97.1842 77.8441 96.9285 77.9506 96.7202C78.0572 96.5118 78.204 96.3426 78.391 96.2124C78.578 96.0821 78.7934 95.9839 79.0373 95.9176C79.2811 95.849 79.5415 95.8028 79.8185 95.7791C80.1287 95.7507 80.3784 95.7211 80.5678 95.6903C80.7572 95.6572 80.8945 95.611 80.9798 95.5518C81.0674 95.4903 81.1112 95.4039 81.1112 95.2926V95.2749C81.1112 95.0926 81.0484 94.9517 80.9229 94.8523C80.7975 94.7528 80.6282 94.7031 80.4151 94.7031C80.1855 94.7031 80.0008 94.7528 79.8612 94.8523C79.7215 94.9517 79.6327 95.089 79.5948 95.2642L77.9933 95.2074C78.0406 94.8759 78.1625 94.58 78.359 94.3196C78.5579 94.0568 78.8301 93.8509 79.1758 93.7017C79.5238 93.5502 79.9416 93.4744 80.4293 93.4744C80.7773 93.4744 81.0981 93.5159 81.3917 93.5987C81.6853 93.6792 81.9409 93.7976 82.1587 93.9538C82.3765 94.1077 82.5446 94.2971 82.663 94.522C82.7837 94.7469 82.8441 95.0038 82.8441 95.2926V99H81.2106V98.2401H81.168C81.0709 98.4247 80.9466 98.581 80.7951 98.7088C80.646 98.8366 80.4696 98.9325 80.266 98.9964C80.0647 99.0604 79.8375 99.0923 79.5842 99.0923ZM80.1204 97.956C80.3074 97.956 80.4755 97.9181 80.6246 97.8423C80.7762 97.7666 80.8969 97.6624 80.9869 97.5298C81.0768 97.3949 81.1218 97.2386 81.1218 97.0611V96.5426C81.0721 96.5687 81.0117 96.5923 80.9407 96.6136C80.872 96.6349 80.7963 96.6551 80.7134 96.674C80.6306 96.6929 80.5453 96.7095 80.4577 96.7237C80.3701 96.7379 80.2861 96.7509 80.2056 96.7628C80.0423 96.7888 79.9026 96.8291 79.7866 96.8835C79.6729 96.938 79.5853 97.009 79.5238 97.0966C79.4646 97.1818 79.435 97.2836 79.435 97.402C79.435 97.5819 79.4989 97.7192 79.6268 97.8139C79.757 97.9086 79.9215 97.956 80.1204 97.956ZM83.9059 99V93.5455H85.5927V94.5398H85.6495C85.7489 94.1799 85.9111 93.9124 86.136 93.7372C86.3609 93.5597 86.6225 93.4709 86.9208 93.4709C87.0013 93.4709 87.0842 93.4768 87.1694 93.4886C87.2546 93.4981 87.3339 93.5135 87.4073 93.5348V95.044C87.3245 95.0156 87.2156 94.9931 87.0806 94.9766C86.948 94.96 86.8297 94.9517 86.7255 94.9517C86.5195 94.9517 86.3337 94.9979 86.168 95.0902C86.0046 95.1802 85.8756 95.3068 85.7809 95.4702C85.6886 95.6312 85.6424 95.8205 85.6424 96.0384V99H83.9059ZM92.877 95.2109L91.2825 95.2536C91.2659 95.1399 91.2209 95.0393 91.1475 94.9517C91.0742 94.8617 90.9783 94.7919 90.8599 94.7422C90.7439 94.6901 90.609 94.6641 90.4551 94.6641C90.2538 94.6641 90.0822 94.7043 89.9402 94.7848C89.8005 94.8653 89.7318 94.9742 89.7342 95.1115C89.7318 95.218 89.7744 95.3104 89.862 95.3885C89.952 95.4666 90.1118 95.5294 90.3414 95.5767L91.3926 95.7756C91.9371 95.8797 92.3419 96.0526 92.6071 96.294C92.8746 96.5355 93.0095 96.8551 93.0119 97.2528C93.0095 97.6269 92.8983 97.9524 92.6781 98.2294C92.4603 98.5064 92.162 98.7218 91.7832 98.8757C91.4044 99.0272 90.9712 99.103 90.4835 99.103C89.7046 99.103 89.0903 98.9432 88.6404 98.6236C88.193 98.3016 87.9373 97.8707 87.8734 97.331L89.5886 97.2884C89.6265 97.4872 89.7247 97.6387 89.8833 97.7429C90.042 97.8471 90.2444 97.8991 90.4906 97.8991C90.7131 97.8991 90.8942 97.8577 91.0339 97.7749C91.1736 97.692 91.2446 97.5819 91.247 97.4446C91.2446 97.3215 91.1902 97.2232 91.0836 97.1499C90.9771 97.0741 90.8102 97.0149 90.5829 96.9723L89.6312 96.7912C89.0843 96.6918 88.6771 96.5083 88.4096 96.2408C88.1421 95.9709 88.0095 95.6276 88.0119 95.2109C88.0095 94.8464 88.1066 94.535 88.3031 94.277C88.4996 94.0166 88.7789 93.8177 89.1412 93.6804C89.5034 93.5431 89.9307 93.4744 90.4231 93.4744C91.1618 93.4744 91.7441 93.6295 92.1703 93.9396C92.5964 94.2474 92.832 94.6712 92.877 95.2109Z" fill="#C5AA64"/>
<defs>
<linearGradient id="paint0_linear_112_163" x1="58.6414" y1="38.4219" x2="58.6414" y2="44.5778" gradientUnits="userSpaceOnUse">
<stop stop-color="#E0CD80"/>
<stop offset="1" stop-color="#9B6F33"/>
</linearGradient>
<linearGradient id="paint1_linear_112_163" x1="57.7811" y1="45.1375" x2="57.7811" y2="50.1741" gradientUnits="userSpaceOnUse">
<stop stop-color="#E0CD80"/>
<stop offset="1" stop-color="#9B6F33"/>
</linearGradient>
<linearGradient id="paint2_linear_112_163" x1="59.2642" y1="50.1741" x2="59.2642" y2="73.119" gradientUnits="userSpaceOnUse">
<stop stop-color="#E0CD80"/>
<stop offset="1" stop-color="#9B6F33"/>
</linearGradient>
<linearGradient id="paint3_linear_112_163" x1="59.4122" y1="73.1191" x2="59.4122" y2="80.1146" gradientUnits="userSpaceOnUse">
<stop stop-color="#E0CD80"/>
<stop offset="1" stop-color="#9B6F33"/>
</linearGradient>
<linearGradient id="paint4_linear_112_163" x1="77.2484" y1="26.1101" x2="77.2484" y2="37.57" gradientUnits="userSpaceOnUse">
<stop stop-color="#E0CD80"/>
<stop offset="1" stop-color="#9B6F33"/>
</linearGradient>
<linearGradient id="paint5_linear_112_163" x1="39.7516" y1="26.1101" x2="39.7516" y2="37.57" gradientUnits="userSpaceOnUse">
<stop stop-color="#E0CD80"/>
<stop offset="1" stop-color="#9B6F33"/>
</linearGradient>
<linearGradient id="paint6_linear_112_163" x1="41.85" y1="19.9541" x2="41.85" y2="29.7477" gradientUnits="userSpaceOnUse">
<stop stop-color="#E0CD80"/>
<stop offset="1" stop-color="#9B6F33"/>
</linearGradient>
<linearGradient id="paint7_linear_112_163" x1="75.4293" y1="19.3945" x2="75.4293" y2="29.1881" gradientUnits="userSpaceOnUse">
<stop stop-color="#E0CD80"/>
<stop offset="1" stop-color="#9B6F33"/>
</linearGradient>
<linearGradient id="paint8_linear_112_163" x1="58.6408" y1="11" x2="58.6408" y2="37.3836" gradientUnits="userSpaceOnUse">
<stop stop-color="#E0CD80"/>
<stop offset="1" stop-color="#9B6F33"/>
</linearGradient>
</defs>
</svg>
